<?xml version="1.0" standalone="no"?>
<!DOCTYPE svg PUBLIC "-//W3C//DTD SVG 20010904//EN"
 "http://www.w3.org/TR/2001/REC-SVG-20010904/DTD/svg10.dtd">
<svg version="1.0" xmlns="http://www.w3.org/2000/svg"
 width="1024.000000pt" height="770.000000pt" viewBox="0 0 1024.000000 770.000000"
 preserveAspectRatio="xMidYMid meet">

<g transform="translate(0.000000,770.000000) scale(0.100000,-0.100000)"
fill="#000000" stroke="none">
<path d="M4685 7686 c-157 -50 -255 -169 -255 -309 0 -66 38 -147 86 -183 l34
-26 -22 -31 c-13 -17 -37 -68 -55 -112 -30 -74 -35 -81 -70 -91 -31 -10 -153
-26 -210 -29 -6 0 -26 22 -45 50 -46 68 -123 108 -213 109 l-65 1 -7 35 c-7
40 10 135 29 157 26 32 101 55 173 56 121 0 240 -72 263 -160 l10 -38 1 46 c1
56 -22 138 -50 173 -48 61 -167 90 -270 66 -159 -37 -249 -149 -249 -308 0
-67 0 -68 -36 -87 -19 -10 -49 -37 -66 -59 l-32 -41 45 41 c42 40 87 69 94 62
16 -16 4 -40 -35 -69 -59 -46 -98 -111 -105 -174 -3 -40 -3 -43 4 -15 12 57
39 98 82 130 68 49 76 48 125 -8 30 -34 67 -62 114 -85 l69 -34 -46 -22 c-73
-35 -160 -108 -189 -157 -29 -49 -37 -131 -21 -209 l9 -40 -22 20 c-12 11 -29
33 -37 48 -17 33 -19 120 -4 159 9 24 6 28 -29 53 -73 50 -100 156 -65 254 17
50 10 55 -11 6 -7 -19 -14 -63 -14 -97 0 -67 17 -106 67 -159 l25 -27 -54 -17
c-158 -52 -228 -126 -227 -240 0 -61 18 -113 53 -160 29 -37 113 -92 157 -101
24 -5 27 -12 33 -64 8 -68 38 -118 82 -140 30 -14 32 -18 36 -86 3 -50 11 -82
27 -107 27 -44 104 -102 161 -122 55 -20 174 -19 232 1 37 12 55 13 85 5 21
-6 56 -11 79 -11 44 0 80 -29 124 -103 22 -38 22 -38 3 -57 -19 -17 -22 -17
-75 1 -75 25 -168 39 -264 39 l-81 0 -109 -112 c-61 -62 -132 -144 -159 -183
-98 -139 -110 -151 -195 -185 -77 -31 -80 -34 -90 -74 -43 -171 -63 -205 -253
-432 -162 -195 -206 -239 -282 -286 -33 -20 -106 -76 -162 -125 -57 -48 -141
-112 -188 -142 l-86 -54 -183 -5 -184 -5 -16 29 c-8 16 -15 26 -16 22 0 -12
97 -283 113 -314 17 -32 167 -184 167 -169 0 5 -23 33 -51 61 l-51 51 29 6
c15 3 47 22 70 41 22 20 48 36 55 36 17 0 124 -43 193 -77 27 -14 100 -59 162
-100 117 -78 120 -82 124 -163 3 -89 0 -105 -29 -121 -15 -8 -47 -27 -72 -42
l-45 -26 -60 39 c-33 21 -82 56 -110 76 l-50 38 45 -48 c25 -26 72 -64 104
-84 54 -34 57 -37 35 -43 -17 -5 -11 -7 24 -8 26 -1 119 15 205 34 86 19 191
39 232 46 103 16 234 7 294 -19 44 -20 47 -24 44 -54 -4 -39 -56 -82 -178
-147 -67 -35 -95 -44 -182 -55 -57 -8 -143 -28 -193 -44 -49 -17 -115 -38
-146 -46 -44 -12 -72 -30 -135 -86 -43 -39 -97 -82 -119 -95 -60 -36 -148 -55
-260 -56 -55 -1 -111 -5 -125 -9 -14 -4 -20 -9 -15 -9 6 -1 -7 -11 -27 -24
-20 -12 -81 -52 -135 -89 -120 -82 -165 -99 -263 -100 -93 0 -209 12 -215 22
-3 5 0 21 5 36 17 44 5 38 -29 -15 -66 -102 -228 -206 -433 -277 -57 -20 -155
-60 -218 -88 -63 -29 -151 -64 -195 -77 -139 -41 -325 -27 -325 25 0 8 40 29
98 51 95 37 272 121 272 129 0 3 -42 -15 -92 -39 -51 -24 -133 -57 -182 -75
-99 -34 -116 -44 -116 -69 0 -31 67 -54 171 -59 117 -5 179 9 338 80 64 28
168 70 233 94 64 24 147 59 185 78 70 35 213 136 247 174 25 29 58 21 171 -39
100 -53 285 -118 415 -146 60 -12 130 -18 235 -18 196 0 221 9 302 108 78 95
149 201 208 312 78 147 186 301 220 314 17 7 73 16 125 21 85 8 105 15 197 60
69 35 115 66 142 96 56 60 55 85 -6 121 -43 25 -60 29 -165 33 l-118 5 123
253 122 253 65 32 c61 30 66 35 85 87 17 44 34 66 87 110 65 55 197 137 360
224 l86 47 45 -63 c25 -35 79 -133 120 -218 69 -141 115 -217 249 -412 77
-111 118 -255 118 -413 0 -116 -7 -128 -148 -247 -37 -30 -38 -46 -16 -132 9
-35 14 -78 10 -102 -3 -24 -39 -106 -87 -195 -240 -452 -323 -625 -412 -869
-68 -185 -115 -347 -147 -510 l-29 -145 -56 -53 c-73 -68 -234 -147 -425 -207
-80 -25 -177 -62 -216 -81 -127 -62 -310 -231 -461 -426 l-44 -58 3106 0 3106
0 -44 58 c-25 31 -91 107 -148 167 -177 189 -287 349 -426 619 -103 200 -165
276 -225 276 -20 0 -64 -9 -99 -19 -107 -33 -330 -89 -403 -101 -112 -18 -195
5 -426 120 -74 37 -161 77 -192 89 -54 22 -60 27 -99 100 -23 42 -72 121 -109
176 -61 92 -67 108 -84 194 -25 138 -98 381 -162 549 -32 81 -57 158 -57 172
0 14 12 53 28 87 31 70 33 61 -43 167 l-33 47 15 63 c23 91 37 252 34 396 -2
121 -1 127 25 165 15 22 27 44 27 50 0 6 -14 33 -31 60 -30 48 -31 50 -19 104
6 31 14 112 16 181 3 69 7 130 9 137 3 8 39 -4 107 -36 57 -27 173 -74 258
-105 356 -131 558 -234 811 -412 104 -74 238 -173 297 -220 208 -165 479 -336
709 -446 90 -43 131 -58 141 -51 8 5 33 40 54 78 22 39 58 94 81 123 35 46 44
52 66 47 14 -3 46 -28 71 -54 25 -26 80 -72 124 -101 106 -71 150 -112 185
-174 20 -35 44 -60 72 -76 24 -13 78 -52 122 -87 45 -36 85 -62 93 -59 9 3 14
20 14 44 0 43 -32 99 -101 177 -58 64 -139 223 -139 270 0 39 40 124 92 196
18 26 75 79 127 119 l94 73 66 -2 c44 -1 72 3 85 12 19 14 18 16 -25 37 -57
29 -55 27 -30 48 22 17 26 17 114 -6 132 -34 227 -22 227 28 0 13 -16 22 -66
36 l-66 18 61 29 c79 37 141 94 141 130 0 29 -22 36 -50 17 -11 -8 -8 -9 13
-4 36 8 36 -14 1 -56 -41 -48 -97 -73 -283 -126 -55 -16 -75 -29 -160 -106
-53 -49 -129 -114 -168 -144 -40 -30 -87 -75 -104 -100 -40 -59 -89 -167 -89
-198 0 -43 95 -223 150 -283 74 -81 126 -193 89 -193 -6 0 -31 18 -57 40 -25
22 -68 54 -96 70 -64 36 -90 60 -122 113 -40 64 -81 104 -174 167 -47 32 -107
81 -135 109 -27 28 -55 51 -62 51 -20 0 -17 4 43 91 31 43 75 116 99 162 41
79 44 82 86 90 82 16 184 49 257 84 104 51 99 59 -9 12 -79 -34 -277 -94 -285
-87 -1 2 4 28 12 58 8 30 17 91 21 135 l6 81 -109 27 c-62 15 -216 70 -356
126 -286 115 -444 170 -725 250 -214 62 -239 74 -372 188 -42 36 -48 38 -125
42 -45 2 -87 8 -93 13 -7 6 -75 40 -150 78 -253 123 -479 294 -533 400 -17 33
-34 60 -38 60 -4 0 -33 4 -65 10 -55 9 -64 14 -150 96 -51 48 -130 116 -177
152 -47 36 -99 80 -117 99 -27 28 -39 33 -80 33 -55 0 -145 20 -187 41 -16 8
-39 28 -52 44 l-23 31 107 0 c86 0 116 4 153 21 26 11 50 26 53 32 4 6 26 11
49 12 36 1 38 2 17 9 -14 4 -18 9 -10 9 12 1 12 4 -2 12 -19 11 -24 29 -9 29
5 0 16 -7 25 -15 8 -8 24 -15 34 -15 11 0 28 -3 38 -7 16 -6 16 -7 -2 -14 -31
-12 149 -10 208 2 75 16 119 41 165 93 39 44 73 125 73 171 0 16 8 26 29 33
16 6 46 26 68 45 21 19 61 42 90 51 69 23 141 89 178 162 57 112 35 232 -67
375 -9 14 -7 23 16 49 37 45 53 78 60 130 5 33 4 41 -3 30 -6 -8 -11 -25 -11
-38 0 -30 -32 -91 -62 -119 -23 -21 -23 -21 -47 -2 l-23 19 23 58 c18 44 24
75 23 132 -1 69 -6 92 -48 205 -8 21 39 -25 83 -80 l23 -30 -17 30 c-10 17
-31 46 -47 66 -16 21 -28 49 -28 65 0 37 -40 121 -74 157 -34 35 -38 34 -22
-5 25 -60 26 -63 21 -35 -4 20 -2 27 6 22 14 -9 45 -78 54 -123 7 -32 6 -32
-19 -21 -20 9 -26 20 -29 53 -3 36 -4 34 -5 -14 -3 -73 -34 -126 -91 -157 -51
-26 -113 -30 -131 -8 -8 9 -21 13 -32 9 -47 -14 -178 102 -178 159 0 16 -7 56
-16 89 -8 33 -13 62 -10 65 2 2 15 -2 28 -11 41 -27 147 -49 201 -42 92 13
178 71 220 151 33 61 30 166 -5 226 -36 61 -108 126 -175 156 -59 27 -195 43
-249 28 -26 -7 -22 -9 41 -24 179 -44 282 -130 327 -274 21 -69 19 -74 -49
-114 -82 -48 -202 -43 -320 13 -49 24 -56 31 -87 99 -117 254 -385 505 -539
505 -31 0 -49 6 -62 20 -14 16 -31 20 -80 20 -45 0 -79 7 -126 27 -59 25 -75
27 -199 27 -109 0 -151 -4 -219 -22 -170 -46 -323 -136 -467 -274 -82 -78 -83
-79 -95 -56 -7 13 -19 48 -25 78 l-12 55 -2 -45 -2 -45 -10 35 c-5 19 -8 56
-6 82 2 26 0 48 -3 48 -12 0 -47 -95 -58 -155 -7 -40 -8 -78 -2 -110 5 -28 8
-52 6 -53 -9 -9 -55 78 -64 119 -20 87 37 217 118 273 44 31 131 66 162 66 16
0 9 -11 -36 -52 -56 -51 -95 -111 -95 -145 0 -10 11 5 24 32 24 53 101 132
154 159 18 9 32 19 32 21 0 10 -86 3 -125 -9z m916 -41 c44 -17 81 -25 125
-25 l63 0 47 -54 c67 -76 118 -164 149 -257 15 -43 29 -79 32 -79 7 0 -4 101
-13 124 -13 33 24 14 81 -41 55 -55 155 -194 155 -216 0 -6 2 -8 4 -6 8 8 -33
120 -66 177 -40 72 -169 202 -228 232 -47 23 -90 58 -90 72 0 14 49 9 83 -8
105 -55 229 -158 320 -267 60 -73 155 -233 144 -244 -4 -3 -30 19 -58 48 -44
45 -50 49 -33 20 29 -50 111 -120 178 -152 89 -42 158 -54 235 -40 35 7 65 10
68 8 6 -6 -67 -34 -109 -42 -70 -13 -216 34 -275 88 -36 33 -36 14 -1 -33 50
-65 56 -78 72 -170 17 -91 35 -370 25 -370 -14 0 -65 78 -81 125 -13 37 -17
43 -18 24 0 -43 37 -137 80 -202 36 -54 39 -62 26 -75 -23 -23 -38 -5 -96 111
-41 84 -52 117 -60 187 -15 116 -40 244 -52 261 -7 11 -8 9 -4 -6 3 -11 13
-70 22 -130 12 -88 14 -153 8 -322 l-6 -212 -43 -7 c-73 -10 -78 -7 -100 76
l-20 75 -3 -68 c-2 -48 -7 -67 -15 -64 -8 2 -13 35 -15 95 l-3 91 50 46 c87
81 101 163 49 276 -28 60 -107 163 -140 180 l-21 11 22 -30 c33 -47 61 -114
61 -149 0 -58 -37 -138 -85 -182 -25 -23 -48 -41 -52 -41 -23 1 -72 113 -74
168 0 15 -4 36 -9 47 -20 45 5 -234 25 -288 6 -14 1 -17 -27 -17 l-34 0 -17
93 c-10 50 -19 106 -21 122 -1 17 -4 -23 -5 -87 0 -66 -5 -118 -10 -118 -5 0
-21 4 -34 9 -22 9 -24 14 -20 55 6 46 -8 64 -22 29 -6 -16 -8 -15 -26 7 -35
44 -92 169 -116 259 l-23 86 5 -92 c6 -96 24 -172 57 -236 11 -22 17 -41 15
-44 -12 -12 -77 62 -92 105 -25 71 -32 210 -11 250 20 38 21 81 2 108 -14 19
-8 76 28 249 5 22 2 20 -9 -10 -9 -22 -23 -77 -32 -121 l-16 -82 -35 24 c-19
13 -42 24 -52 24 -9 0 -20 3 -23 7 -9 8 -77 15 -77 8 0 -4 13 -17 29 -31 20
-16 27 -30 24 -44 -3 -11 0 -58 7 -106 11 -76 10 -88 -4 -102 -8 -9 -18 -13
-22 -9 -4 3 -9 48 -12 99 -6 108 -14 98 -41 -52 -17 -93 -18 -95 -49 -104 -18
-5 -36 -6 -40 -2 -4 4 -7 68 -7 142 0 74 -1 134 -2 134 -1 0 -7 -26 -13 -57
-11 -56 -51 -174 -69 -201 -7 -12 -12 -12 -30 -1 -26 17 -26 17 -2 72 11 25
29 80 41 123 12 43 24 85 27 94 2 8 -5 -1 -16 -21 -11 -19 -27 -41 -35 -48
-14 -12 -16 -7 -16 40 0 78 25 181 59 252 17 34 23 52 15 40 -9 -12 -27 -34
-40 -48 -37 -40 -82 -136 -100 -212 -15 -64 -15 -162 1 -233 3 -14 -6 -1 -21
28 -20 41 -27 74 -31 147 -6 92 -5 97 26 158 18 35 53 90 79 122 73 90 80 106
17 40 -68 -72 -137 -185 -166 -275 -27 -81 -99 -240 -110 -240 -4 0 -3 16 3
36 20 73 0 41 -37 -58 -21 -57 -50 -125 -65 -153 -14 -27 -33 -69 -43 -92 -15
-38 -36 -58 -37 -35 -1 4 -5 27 -9 52 -8 41 -6 49 30 109 21 36 39 70 39 77 0
18 132 339 176 426 l36 73 -89 -86 c-48 -47 -106 -99 -128 -116 -95 -72 -283
-145 -437 -169 -90 -15 -101 -14 -148 1 -28 9 -50 19 -48 20 2 2 35 9 73 15
159 25 414 141 622 282 110 74 152 113 81 73 l-45 -25 -54 24 -54 23 61 5 c92
6 161 45 274 155 54 52 114 106 135 120 65 44 172 88 305 124 l45 13 -45 7
c-72 12 -219 9 -295 -5 -38 -8 -71 -13 -73 -11 -5 5 98 34 159 44 92 17 238 6
310 -24z m-621 -183 c-50 -34 -160 -133 -197 -177 -22 -27 -46 -45 -58 -45
-20 0 -65 33 -65 48 1 25 57 63 200 134 111 56 173 76 120 40z m-782 -85 c60
-22 122 -100 122 -153 0 -13 -10 -8 -37 19 -51 52 -130 80 -224 81 -72 1 -75
2 -55 17 63 48 126 60 194 36z m2524 -28 c35 -11 83 -35 108 -53 117 -85 146
-282 53 -367 l-26 -24 18 35 c27 52 25 143 -3 202 -46 94 -142 179 -240 214
l-37 13 32 1 c18 0 61 -9 95 -21z m-2799 -21 c-57 -60 -68 -93 -68 -198 1 -79
5 -102 24 -138 36 -70 95 -127 162 -157 33 -15 58 -29 56 -31 -9 -9 -116 34
-159 64 -56 39 -79 64 -123 137 -34 55 -36 64 -31 114 9 80 42 145 98 196 58
52 87 61 41 13z m737 -207 c0 -31 -52 -113 -64 -100 -6 7 45 109 55 109 5 0 9
-4 9 -9z m-609 -94 c45 -24 119 -109 101 -115 -5 -1 -32 11 -58 28 -55 35
-103 50 -156 50 -27 0 -40 6 -48 19 -19 36 -12 41 53 41 48 0 75 -6 108 -23z
m1475 -64 c60 -59 58 -108 -7 -178 -22 -24 -62 -57 -88 -74 -98 -64 -269 -109
-341 -92 -33 8 -31 9 22 10 82 1 154 19 227 55 75 37 146 110 155 160 8 43
-14 99 -56 143 l-30 32 42 -11 c25 -7 57 -25 76 -45z m-63 -32 c23 -40 21
-121 -3 -121 -7 0 -11 15 -25 108 -8 49 3 54 28 13z m-787 -139 c-8 -22 -18
-62 -21 -89 -4 -26 -11 -66 -17 -88 l-10 -40 -23 45 -23 45 30 60 c34 66 68
118 74 112 2 -2 -2 -22 -10 -45z m-138 -42 c-9 -36 -28 -56 -28 -30 0 12 28
70 34 70 2 0 -1 -18 -6 -40z m996 -43 c-7 -61 -15 -63 -40 -14 -16 30 -16 31
12 53 15 13 30 22 31 20 2 -2 1 -28 -3 -59z m-1154 38 c0 -8 -16 -19 -38 -24
-20 -6 -58 -24 -83 -40 -45 -28 -129 -108 -129 -122 0 -25 -248 -15 -274 11
-16 16 45 91 108 135 l58 40 159 0 c87 1 161 4 165 8 13 12 34 8 34 -8z m1830
-57 c50 -105 38 -179 -39 -253 -40 -38 -54 -38 -27 0 7 11 17 31 21 44 7 24 7
24 -31 -5 -61 -48 -72 -51 -37 -11 61 70 78 113 78 205 0 45 1 82 3 82 2 0 16
-28 32 -62z m-1256 0 l19 -42 -32 -62 c-32 -62 -109 -158 -96 -119 4 11 20 54
35 95 16 41 31 97 35 123 4 26 10 47 14 47 3 0 15 -19 25 -42z m246 17 c0 -15
-6 -25 -15 -25 -12 0 -13 4 -3 25 6 14 13 25 15 25 1 0 3 -11 3 -25z m-687
-12 c39 -20 31 -24 -23 -12 -188 44 -334 -72 -373 -296 -6 -34 -7 -86 -3 -120
7 -56 11 -64 66 -117 82 -81 146 -95 250 -57 30 11 81 29 114 40 64 22 113 51
173 100 21 17 4 -2 -38 -44 -54 -53 -98 -86 -150 -111 -72 -36 -67 -38 31 -14
94 23 209 97 299 193 48 52 65 65 74 55 25 -25 -180 -193 -299 -246 -192 -85
-434 -19 -516 141 -14 26 -22 66 -26 120 -6 97 12 169 60 241 39 57 138 128
201 143 50 12 121 5 160 -16z m1072 -168 c33 -33 75 -67 93 -74 17 -7 32 -16
32 -20 0 -12 -57 -41 -80 -41 -38 0 -145 118 -187 205 l-36 77 23 18 24 18 35
-61 c20 -34 63 -89 96 -122z m1378 67 c-28 -38 -75 -63 -136 -72 l-52 -8 43
-1 c54 -1 99 17 141 59 40 40 44 36 67 -68 18 -83 13 -142 -18 -209 -18 -39
-81 -103 -100 -103 -3 0 -12 25 -18 56 -11 52 -57 153 -109 236 l-22 37 43 11
c70 19 114 53 134 106 l18 47 15 -32 c14 -29 13 -33 -6 -59z m-1588 22 c29
-71 103 -161 165 -202 l60 -41 -57 -6 c-89 -10 -94 -13 -21 -14 85 -1 158 25
210 76 30 29 38 33 38 19 0 -26 -36 -81 -65 -100 -14 -9 -25 -12 -25 -7 0 5 5
13 10 16 6 3 10 11 10 16 0 5 -10 3 -22 -5 -41 -27 -139 -47 -193 -40 -57 7
-124 33 -143 57 -11 13 -5 12 37 -4 65 -24 85 -24 45 0 -40 24 -73 108 -81
203 -7 77 7 91 32 32z m1205 -41 c0 -27 -8 -29 -38 -7 -16 11 -22 25 -22 51
l0 37 30 -29 c17 -16 30 -39 30 -52z m-1251 -13 c0 -33 0 -34 -15 -15 -9 11
-22 32 -30 48 -14 26 -13 28 8 36 26 10 35 -8 37 -69z m-93 -28 c74 -197 220
-284 389 -231 39 12 87 21 109 20 43 -1 231 -88 260 -120 17 -19 16 -20 -41
-32 -32 -6 -68 -18 -81 -26 -22 -14 -82 -89 -82 -104 0 -4 29 12 65 36 36 24
93 53 126 65 l61 23 36 -21 c20 -11 38 -29 40 -40 3 -16 -12 -23 -105 -45
-133 -33 -235 -82 -240 -115 -3 -22 -2 -22 19 -8 31 22 35 21 42 -20 8 -40 37
-74 64 -73 13 0 12 2 -5 9 -23 9 -43 39 -43 64 0 24 46 31 67 11 16 -16 18
-16 34 4 20 24 79 30 79 7 0 -18 -64 -80 -92 -88 l-23 -6 24 -1 c31 -1 107 74
116 114 13 57 13 58 47 51 17 -3 34 -9 37 -11 3 -3 -8 -31 -23 -63 l-28 -57
34 33 c59 56 67 8 13 -74 -19 -29 -71 -127 -115 -217 -67 -138 -87 -171 -127
-207 -50 -43 -289 -168 -441 -229 l-84 -34 -42 20 c-108 53 -343 267 -426 388
-19 27 -58 106 -86 175 l-53 125 -62 5 c-41 3 -65 10 -70 20 -17 32 -59 133
-59 141 0 25 29 4 47 -35 16 -33 29 -45 51 -49 50 -10 72 1 72 38 0 18 -7 38
-16 45 -40 34 -36 46 34 91 37 24 95 71 130 106 l63 62 25 -52 24 -52 0 53 c0
58 4 60 72 42 35 -10 37 -13 28 -36 -34 -87 25 -215 106 -230 42 -8 99 19 121
57 10 16 21 29 25 29 4 0 16 -17 27 -37 l20 -38 1 30 c0 36 -16 62 -79 128
-62 65 -127 109 -166 113 -35 2 -148 54 -147 67 0 4 28 62 62 128 l61 120 41
-3 c40 -3 41 -4 64 -66z m-761 21 c-8 -44 -51 -141 -88 -200 -26 -41 -55 -62
-107 -78 -22 -7 -20 -3 16 41 60 73 102 137 136 209 34 73 54 86 43 28z m-772
5 c-4 -13 -8 -53 -8 -89 0 -56 4 -71 28 -102 15 -19 27 -38 27 -41 0 -3 -16
-31 -35 -63 -19 -31 -37 -70 -40 -85 -9 -41 -23 -44 -56 -12 -87 83 -90 207
-9 331 44 67 111 111 93 61z m837 -26 c0 -15 3 -36 6 -48 4 -17 -2 -26 -31
-43 -20 -11 -38 -21 -41 -21 -10 0 -3 70 12 113 14 41 18 46 35 37 11 -7 19
-21 19 -38z m2130 23 c19 -7 36 -19 39 -26 2 -8 7 -16 11 -19 15 -10 51 -91
65 -147 8 -31 15 -88 15 -125 0 -64 -1 -68 -22 -68 -13 0 -47 11 -77 25 -50
23 -53 27 -46 53 15 64 17 149 2 205 l-15 57 26 1 27 1 -30 9 c-16 5 -39 21
-49 36 -19 26 -19 26 0 18 10 -4 35 -13 54 -20z m-78 -57 c9 -39 -7 -127 -27
-154 -13 -18 -14 -17 -25 11 -6 17 -14 69 -17 118 l-6 87 34 -14 c26 -11 36
-22 41 -48z m-1598 20 c-9 -18 -35 -59 -56 -91 l-40 -59 -24 23 c-13 12 -24
17 -24 11 0 -6 5 -14 10 -17 31 -19 -21 -65 -73 -65 -23 0 -87 58 -87 79 0 4
24 11 54 14 67 7 147 44 206 96 25 22 46 40 48 41 1 0 -5 -15 -14 -32z m-1399
-5 c-10 -16 -24 -37 -31 -48 -8 -10 -19 -46 -26 -80 l-13 -60 -5 45 -6 45 -13
-45 c-17 -56 -10 -164 13 -208 20 -39 9 -41 -26 -4 -112 119 -78 285 72 360
56 28 56 28 35 -5z m1009 -22 c16 -31 28 -154 15 -145 -20 12 -51 90 -56 143
-6 52 -5 55 11 42 10 -8 23 -26 30 -40z m2047 -74 c18 -95 -15 -195 -81 -251
-34 -28 -129 -66 -167 -66 -24 0 -23 2 19 30 24 16 53 39 63 50 17 19 15 18
-41 -4 -32 -13 -77 -26 -99 -30 -35 -5 -32 -3 21 17 159 60 228 147 241 300
l6 72 14 -34 c8 -18 18 -56 24 -84z m-2642 46 l73 -6 -5 -51 c-3 -28 -2 -75 2
-103 l7 -53 -31 0 c-126 0 -225 94 -225 214 l0 44 53 -20 c28 -11 85 -22 126
-25z m1049 30 c-35 -79 -65 -123 -81 -119 -15 4 -16 2 -6 -10 8 -10 9 -18 2
-25 -11 -11 -43 -2 -43 12 0 7 121 148 128 149 2 0 2 -3 0 -7z m-748 -25 c0
-23 -59 -139 -91 -179 -23 -29 -38 -39 -60 -39 l-29 0 0 74 c0 40 5 87 11 104
10 28 16 31 72 40 88 14 97 13 97 0z m2521 -105 c41 -81 44 -90 44 -169 0 -97
-15 -124 -86 -161 -59 -30 -79 -29 -45 2 48 44 70 109 69 205 0 79 -11 124
-48 215 -8 17 -7 18 7 7 9 -7 35 -51 59 -99z m-2246 -23 c-9 -14 -163 -71
-235 -86 -109 -23 -122 -16 -35 19 92 37 155 72 205 115 l35 30 18 -34 c10
-19 15 -39 12 -44z m1285 35 l55 -11 -47 -18 c-32 -13 -62 -17 -89 -13 -52 7
-55 10 -32 41 13 18 24 23 38 19 11 -4 45 -11 75 -18z m504 -101 c5 -68 4 -83
-9 -88 -13 -5 -15 10 -15 97 1 118 14 113 24 -9z m-335 -15 l44 -62 -33 19
c-17 11 -50 34 -72 53 -36 31 -39 36 -22 42 34 13 39 10 83 -52z m-2216 16
c67 -45 160 -82 225 -91 29 -3 52 -10 52 -15 0 -15 -125 -69 -184 -80 -54 -10
-120 -7 -168 7 -13 4 -18 16 -18 40 0 37 28 174 36 174 2 0 28 -16 57 -35z
m2622 -11 c31 -21 31 -28 0 -42 -35 -16 -35 -16 -35 23 0 40 2 41 35 19z
m-1852 -25 c-10 -17 -26 -37 -35 -46 -17 -15 -18 -14 -18 8 0 16 11 31 33 46
17 12 33 22 35 22 2 1 -5 -13 -15 -30z m-871 -64 c-4 -68 -7 -73 -35 -52 -16
11 -15 16 8 65 13 28 25 52 27 52 2 0 1 -29 0 -65z m786 -26 c-10 -6 -14 0
-16 23 -2 18 2 34 10 39 10 6 14 0 16 -23 2 -18 -2 -34 -10 -39z m2156 46 c10
-8 43 -20 72 -26 35 -8 54 -17 54 -27 0 -17 -54 -11 -132 14 -50 16 -56 22
-36 42 15 15 19 15 42 -3z m326 -6 c0 -11 -4 -18 -10 -14 -5 3 -7 12 -3 20 7
21 13 19 13 -6z m61 -21 c60 -69 93 -143 97 -221 6 -103 -11 -151 -79 -219
-72 -73 -96 -77 -68 -14 10 24 22 64 25 88 6 48 -11 363 -21 391 -12 29 7 19
46 -25z m-1888 5 c9 -3 17 -15 17 -26 0 -40 57 -76 75 -47 9 14 28 13 49 -3
25 -18 8 -49 -39 -71 -67 -32 -129 9 -154 102 -13 47 -7 67 18 57 9 -4 24 -10
34 -12z m-743 -29 c0 -20 -5 -24 -30 -24 -23 0 -30 4 -30 20 0 12 9 24 23 29
29 11 37 6 37 -25z m2208 12 c15 -8 55 -20 90 -26 39 -8 62 -18 62 -26 0 -17
-67 -84 -84 -84 -8 0 -19 7 -27 16 -14 17 -89 58 -89 49 0 -3 11 -23 25 -43
21 -31 23 -38 10 -40 -25 -6 -63 25 -85 68 -23 46 -24 50 -7 50 6 0 26 11 42
25 36 29 30 28 63 11z m-2498 -6 c0 -6 -19 -19 -42 -29 -79 -34 -93 -33 -33 3
65 38 75 41 75 26z m120 1 c0 -18 -15 -19 -40 -5 l-25 13 33 1 c17 0 32 -4 32
-9z m40 2 c0 -5 -4 -15 -10 -23 -11 -18 -25 -7 -17 15 6 15 27 21 27 8z m2716
-29 c15 -60 -20 -200 -58 -231 -13 -11 -17 -5 -28 45 -7 31 -21 74 -32 96 -28
54 -13 89 45 103 64 15 66 15 73 -13z m-2823 -22 l27 -28 -51 -33 c-27 -18
-69 -56 -91 -85 -34 -43 -47 -52 -81 -57 -39 -6 -102 3 -114 15 -4 3 1 32 10
63 8 32 14 59 13 61 -7 6 -65 -50 -71 -68 -4 -11 -13 -20 -20 -20 -15 0 -65
66 -65 86 0 7 37 13 103 17 96 5 234 39 277 67 23 15 34 12 63 -18z m1981 2
c28 -11 13 -44 -20 -44 -2 0 -4 11 -4 25 0 27 1 28 24 19z m360 -52 c24 -40
25 -44 6 -27 -24 22 -55 75 -43 75 5 0 21 -22 37 -48z m-194 -26 c0 -30 3 -61
6 -70 3 -9 1 -16 -5 -16 -16 0 -64 77 -56 89 3 6 2 11 -4 11 -6 0 -15 9 -21
20 -10 19 -8 20 35 20 l45 0 0 -54z m76 27 c19 -84 28 -113 54 -160 34 -64 25
-68 -22 -10 -64 78 -106 166 -92 188 3 5 16 9 29 9 19 0 26 -7 31 -27z m-2170
-20 c-14 -29 -66 -82 -66 -69 0 9 29 67 42 84 6 6 17 12 24 12 12 0 12 -4 0
-27z m450 -11 c-2 -2 -14 2 -26 8 -18 10 -20 14 -9 21 9 6 18 3 26 -8 7 -9 11
-18 9 -21z m1504 23 c0 -17 -2 -18 -25 -9 -13 5 -14 8 -3 15 19 13 28 11 28
-6z m459 -9 c15 -16 19 -26 11 -31 -6 -4 -12 -5 -14 -4 -40 60 -38 79 3 35z
m-2936 -35 c3 -27 15 -68 27 -90 23 -47 8 -57 -28 -18 -28 29 -42 70 -42 118
0 31 4 39 19 39 14 0 19 -10 24 -49z m3206 -145 c9 -82 -3 -178 -27 -220 -21
-36 -105 -96 -135 -96 -20 0 -19 1 6 28 27 28 66 106 67 131 0 10 -9 6 -27
-11 -16 -14 -39 -31 -53 -38 -19 -10 -13 0 22 38 61 69 79 122 86 257 l5 110
24 -65 c14 -36 28 -96 32 -134z m-2753 152 c-9 -14 -25 -58 -35 -99 -18 -68
-19 -71 -21 -34 l-2 40 -14 -45 c-9 -27 -14 -74 -12 -117 2 -58 1 -69 -10 -60
-25 20 -44 71 -45 116 -1 62 27 116 91 179 55 54 76 63 48 20z m174 5 c0 -32
-33 -139 -57 -187 -30 -60 -74 -116 -89 -116 -15 0 -40 53 -48 102 -8 42 8
121 24 126 7 3 40 26 73 52 61 46 97 55 97 23z m2507 -65 c-8 -124 -12 -135
-54 -149 -19 -6 -36 -9 -37 -7 -1 1 -7 35 -13 73 -6 39 -14 80 -18 92 -6 17
-2 22 22 27 16 4 42 18 58 31 17 13 34 24 39 25 5 0 6 -40 3 -92z m-2203 67
c11 -8 32 -15 48 -15 21 0 28 -5 28 -20 0 -16 -7 -20 -32 -20 -27 0 -37 7 -56
35 -24 37 -19 44 12 20z m1890 -31 c28 -8 63 -14 79 -14 24 0 27 -4 29 -37 4
-83 -12 -163 -32 -163 -17 0 -92 64 -120 102 -26 35 -60 121 -60 151 0 5 12 1
27 -8 14 -10 49 -24 77 -31z m-2157 28 c15 -10 -3 -74 -40 -148 -39 -76 -60
-96 -32 -31 14 32 31 87 37 122 13 67 15 70 35 57z m-507 -43 c-28 -95 -3
-227 53 -288 l22 -23 -25 7 c-14 4 -44 18 -67 30 -53 29 -55 15 -5 -35 43 -44
114 -63 189 -53 l47 6 -48 14 c-80 24 -166 129 -154 190 2 11 21 21 58 29 77
18 77 18 72 -16 -7 -48 16 -113 57 -163 l38 -45 44 23 c24 12 60 29 79 37 50
22 123 90 176 164 25 35 47 64 50 64 6 0 -12 -43 -47 -112 -59 -118 -214 -236
-333 -253 -94 -14 -217 48 -265 134 -42 77 -23 225 41 306 25 33 30 28 18 -16z
m2362 -37 c76 -161 246 -272 415 -272 57 0 64 -2 53 -15 -17 -20 -146 -20
-223 0 -120 31 -198 85 -245 168 -48 86 -67 144 -52 162 7 8 15 15 19 14 3 0
18 -26 33 -57z m488 4 c6 -19 12 -60 13 -93 l2 -58 -37 -3 -38 -3 0 73 c0 40
-3 83 -6 96 -6 19 -3 22 24 22 26 0 32 -5 42 -34z m286 -28 c-10 -76 -66 -146
-66 -82 0 22 57 133 69 134 2 0 0 -23 -3 -52z m-2470 -115 c-29 -58 -86 -137
-93 -130 -2 3 1 16 8 29 16 30 99 148 105 148 2 0 -7 -21 -20 -47z m164 30 c0
-33 -47 -118 -90 -163 -23 -25 -35 -34 -26 -20 32 48 76 145 76 166 0 11 3 24
7 27 13 13 33 7 33 -10z m2108 -55 c-9 -13 -26 -26 -39 -29 -39 -11 -131 -8
-174 5 l-40 12 90 8 c50 4 106 11 125 15 52 13 54 13 38 -11z m-2020 -28 c12
-50 -4 -130 -38 -185 -30 -49 -103 -95 -149 -95 -36 1 -36 1 24 30 32 16 69
42 82 57 32 40 53 108 53 175 0 67 13 76 28 18z m1476 -43 c20 -66 73 -133
123 -154 38 -15 121 -18 88 -2 -15 7 -11 8 19 5 21 -3 41 -8 44 -11 19 -18
-87 -49 -138 -40 -79 13 -151 111 -166 226 -8 67 6 56 30 -24z m-110 -125 c22
-65 83 -159 127 -196 60 -51 142 -84 212 -85 47 0 58 2 44 10 -16 9 -13 14 26
39 46 31 93 85 120 136 16 31 35 44 63 44 17 0 11 -50 -13 -113 -22 -55 -104
-124 -171 -143 -78 -23 -189 -13 -248 21 -106 62 -214 275 -214 421 0 67 14
59 26 -15 7 -38 19 -92 28 -119z m-1408 121 c-9 -60 -51 -150 -78 -164 -23
-13 -66 -4 -90 18 -25 22 -23 27 15 45 18 8 59 45 92 81 33 36 62 66 64 66 2
1 0 -20 -3 -46z m1662 -96 c53 -34 53 -47 2 -47 -29 0 -88 57 -116 111 -34 68
-30 71 19 17 23 -26 66 -63 95 -81z m-2048 -7 c11 -7 5 -10 -23 -10 -23 0 -36
4 -32 10 8 13 35 13 55 0z m1985 -100 c71 -15 146 -8 189 18 28 17 40 18 89 9
31 -6 57 -13 57 -17 0 -4 -13 -25 -29 -47 -36 -50 -114 -90 -206 -106 -62 -11
-69 -10 -112 13 -48 25 -112 100 -137 162 l-15 36 52 -28 c29 -16 79 -34 112
-40z m-1869 13 c-8 -9 -46 18 -40 28 4 6 13 4 25 -7 11 -9 17 -19 15 -21z
m384 17 c0 -5 -5 -10 -11 -10 -5 0 -7 5 -4 10 3 6 8 10 11 10 2 0 4 -4 4 -10z
m2 -77 c-11 -21 -40 -58 -63 -81 -44 -43 -45 -44 -102 -39 -68 6 -127 38 -180
96 -45 50 -47 63 -7 49 20 -6 35 -22 44 -42 14 -35 69 -86 91 -86 8 0 37 5 66
11 67 15 142 84 154 145 8 34 9 36 13 12 2 -14 -6 -44 -16 -65z m134 -36 c121
-129 313 -277 362 -277 12 0 38 7 57 15 l35 14 -2 -37 c-4 -66 2 -118 15 -135
10 -15 11 -7 9 43 -2 33 -2 60 1 60 2 0 26 -9 52 -21 50 -22 69 -51 81 -128 6
-37 4 -41 -14 -41 -11 0 -30 -9 -43 -21 -26 -22 -21 -22 24 1 19 9 31 10 38 3
9 -9 15 -380 7 -389 -2 -1 -35 21 -75 49 -40 29 -111 77 -158 107 -86 54 -256
205 -314 279 l-31 39 38 -9 c161 -36 220 -52 240 -65 29 -19 39 -13 15 8 -10
8 -85 32 -167 52 -157 39 -176 48 -303 148 -70 55 -142 138 -108 124 35 -14
99 -20 92 -9 -4 6 3 30 14 53 13 27 26 83 32 143 l11 99 19 -24 c11 -12 43
-49 73 -81z m1104 -69 c0 -28 0 -28 -25 -12 -24 16 -65 88 -65 114 0 8 20 -6
45 -30 32 -32 45 -52 45 -72z m-107 5 c23 -24 38 -43 34 -43 -13 0 -82 47
-105 73 -22 24 -23 26 -5 35 14 8 20 7 27 -6 5 -9 27 -36 49 -59z m-1793 58
l55 -7 -53 -8 -54 -8 69 -64 68 -63 -79 41 c-92 47 -76 52 -227 -61 -66 -49
-128 -106 -170 -157 -37 -43 -77 -88 -90 -99 l-23 -20 21 33 c57 94 150 207
252 309 124 124 114 119 231 104z m1818 -115 c39 -20 72 -41 72 -46 0 -5 -10
-14 -21 -21 -34 -18 -91 4 -133 52 -59 65 -79 135 -23 82 17 -17 65 -47 105
-67z m-113 1 c40 -54 74 -77 121 -84 32 -4 43 -1 62 19 16 18 30 23 52 20 39
-6 38 -17 -2 -39 -75 -39 -215 -1 -278 75 -33 40 -36 52 -17 71 10 10 14 9 22
-5 6 -9 24 -35 40 -57z m305 -8 c0 -5 -7 -9 -15 -9 -9 0 -12 6 -9 15 6 15 24
11 24 -6z m-1282 -257 l56 -37 -61 -5 c-54 -5 -66 -10 -119 -55 -62 -53 -62
-52 3 45 12 19 23 40 23 46 0 7 -21 47 -46 90 l-46 78 67 -62 c37 -35 92 -80
123 -100z m1287 -31 c22 -21 67 -57 100 -82 33 -24 106 -89 163 -143 99 -96
105 -100 164 -111 61 -11 62 -11 98 -70 53 -88 234 -230 428 -337 40 -22 71
-43 68 -45 -9 -10 -202 100 -335 191 l-134 91 -86 -2 c-47 -1 -106 -4 -131 -7
l-45 -6 40 21 c61 33 145 100 145 115 0 7 -19 18 -42 25 -62 16 -114 50 -193
124 -38 36 -123 105 -187 152 -65 47 -118 90 -118 95 0 6 -33 8 -79 6 -44 -2
-77 -1 -74 2 16 17 75 28 123 23 46 -5 62 -12 95 -42z m-2549 -60 c-23 -24
-27 -35 -22 -58 12 -46 70 -115 150 -177 42 -33 74 -61 72 -63 -6 -6 -244 115
-293 149 -45 30 -52 52 -34 100 6 17 23 28 53 37 23 7 54 19 68 27 36 19 37
17 6 -15z m2487 -166 l52 -46 -52 20 c-29 11 -83 37 -120 56 l-68 36 49 -6 49
-7 -7 29 -7 28 26 -32 c14 -18 49 -53 78 -78z m-2869 -337 c-74 -122 -135
-206 -155 -211 -13 -3 -24 -5 -25 -4 -3 3 177 227 183 227 2 0 1 -6 -3 -12z
m3056 -210 c23 -43 50 -104 61 -135 20 -60 20 -84 0 -34 -11 26 -16 28 -50 24
-30 -4 -43 0 -66 20 -25 21 -29 32 -30 78 0 49 2 54 23 57 26 4 26 6 7 63 -20
60 0 33 55 -73z m-704 6 c40 -19 91 -80 104 -123 20 -70 -51 -79 -114 -16 -44
44 -74 119 -56 140 16 19 24 19 66 -1z m-2472 -48 c-49 -24 -116 -67 -149 -95
-114 -97 -174 -139 -274 -190 -117 -60 -180 -72 -85 -15 33 20 114 82 180 140
139 121 183 147 301 179 125 33 128 31 27 -19z m2374 -83 c19 -37 -12 -59 -38
-28 -10 12 -10 18 0 30 16 20 27 19 38 -2z m1827 6 l240 -11 68 -57 c114 -95
141 -108 332 -161 199 -57 459 -140 453 -145 -2 -2 -31 4 -63 14 -81 25 -216
60 -486 125 -193 47 -244 63 -357 116 l-133 61 -247 29 c-136 17 -254 32 -262
34 -33 8 229 5 455 -5z m-4925 -311 c-103 -17 -123 -18 -190 -6 l-75 13 45 6
c25 3 110 6 190 6 l145 1 -115 -20z m-75 -59 c61 -15 121 -33 135 -39 l25 -11
-25 6 c-14 3 -87 17 -162 31 -86 17 -139 31 -142 40 -6 16 13 13 169 -27z
m192 -55 c-3 -3 -12 -4 -19 -1 -8 3 -5 6 6 6 11 1 17 -2 13 -5z m6010 -90 c-3
-3 -12 -4 -19 -1 -8 3 -5 6 6 6 11 1 17 -2 13 -5z m124 -18 c41 -8 115 -20
164 -26 50 -7 135 -25 190 -40 55 -15 114 -32 130 -37 l30 -8 -9 -65 -9 -65
-11 35 c-17 48 -43 60 -344 145 -249 72 -292 90 -141 61z m-2231 -196 c0 -15
-49 -23 -73 -12 -17 8 -18 11 -5 11 10 1 21 15 28 37 l12 36 19 -31 c10 -17
19 -36 19 -41z m3606 -60 c43 -11 82 -24 87 -29 13 -13 -54 -36 -103 -35 -57
1 -174 34 -162 46 4 4 28 14 53 22 24 8 44 14 45 15 0 1 36 -8 80 -19z m-222
-107 c19 -9 33 -20 30 -25 -6 -9 -124 -11 -124 -2 0 7 43 43 52 44 4 0 23 -7
42 -17z m-3444 -259 c-9 -99 -46 -279 -49 -238 -2 22 39 419 47 454 13 63 15
-82 2 -216z m11 -331 c20 -27 39 -53 43 -60 9 -17 -90 -52 -213 -74 -131 -24
-139 -23 -71 4 30 12 69 30 86 39 39 22 92 81 100 113 3 14 9 25 13 25 4 0 23
-21 42 -47z m163 -738 c43 -171 72 -341 85 -500 l10 -120 -30 -30 -29 -30 0
116 c0 133 -22 361 -51 529 -11 63 -23 131 -26 150 -13 75 8 18 41 -115z m154
-422 c67 -107 115 -193 110 -199 -3 -2 -42 40 -87 95 -72 88 -81 104 -81 140
0 23 2 41 4 41 2 0 26 -35 54 -77z m75 -223 c67 -21 308 -118 317 -127 3 -3
-6 -3 -20 1 -29 7 -250 56 -255 56 -3 0 -2 -37 0 -82 5 -83 5 -83 -9 -37 -7
25 -26 73 -42 105 -26 51 -34 60 -69 70 -36 10 -38 12 -20 22 26 15 23 15 98
-8z m1327 -178 c23 -26 55 -73 72 -103 l31 -54 -75 74 c-65 63 -83 74 -124 82
-27 5 -69 7 -94 4 l-45 -6 60 25 c33 14 77 25 97 25 32 1 42 -5 78 -47z
m-3453 -25 c45 -92 237 -319 458 -543 133 -134 338 -305 458 -381 59 -38 87
-62 87 -74 0 -18 -23 -19 -690 -19 l-689 0 -25 43 c-14 23 -39 77 -56 120
l-31 78 59 64 c32 35 82 106 110 158 47 84 228 485 262 580 8 20 17 37 20 37
3 0 20 -28 37 -63z m1837 -704 c-17 -79 -55 -214 -71 -258 l-19 -50 -352 -3
c-336 -2 -352 -1 -352 16 0 15 40 35 193 96 182 73 583 223 600 225 4 1 5 -11
1 -26z m-2289 -203 c20 -47 39 -91 42 -98 4 -9 -41 -12 -208 -12 -121 0 -209
4 -203 9 5 4 56 40 114 79 58 38 128 86 155 106 44 32 51 34 57 19 4 -10 23
-56 43 -103z m2401 75 c28 -14 91 -60 139 -103 l88 -77 -203 -3 c-112 -1 -205
-1 -207 2 -3 3 32 118 62 205 7 18 54 9 121 -24z"/>
<path d="M5461 7594 c-108 -29 -250 -113 -321 -189 -17 -18 3 -8 58 28 76 51
183 97 221 97 11 0 5 -10 -17 -30 -37 -34 -33 -39 6 -11 24 17 146 80 212 109
39 17 -92 14 -159 -4z"/>
<path d="M5628 7536 c-79 -32 -136 -67 -188 -115 l-45 -41 52 34 c55 36 113
60 113 47 0 -5 -7 -14 -15 -21 -9 -7 -34 -36 -57 -64 -31 -38 -16 -26 58 44
54 52 110 104 124 117 30 28 29 28 -42 -1z"/>
<path d="M5761 7483 c-7 -43 -14 -127 -16 -188 -4 -110 -4 -110 6 -35 11 79
24 107 35 74 4 -10 25 -64 47 -119 36 -91 40 -111 47 -225 l7 -125 1 132 c2
145 -9 244 -40 373 -19 78 -61 190 -71 190 -3 0 -10 -35 -16 -77z"/>
<path d="M5235 6380 c71 -60 146 -144 181 -205 39 -69 45 -52 18 47 -19 65
-35 80 -169 153 l-70 38 40 -33z"/>
<path d="M5118 6310 c42 -26 56 -26 17 0 -16 11 -34 20 -40 20 -5 0 5 -9 23
-20z"/>
<path d="M5352 6171 c34 -38 64 -68 66 -66 9 8 -32 67 -70 99 -67 57 -65 42 4
-33z"/>
<path d="M5920 6081 c-39 -12 -85 -38 -101 -57 -9 -12 3 -8 41 11 30 15 70 33
90 41 38 14 13 18 -30 5z"/>
<path d="M5040 6006 c0 -9 5 -16 10 -16 6 0 10 -6 10 -13 0 -14 92 -51 112
-45 7 3 -8 10 -34 16 -30 8 -55 22 -72 43 -17 20 -26 25 -26 15z"/>
<path d="M5198 5923 c7 -3 16 -2 19 1 4 3 -2 6 -13 5 -11 0 -14 -3 -6 -6z"/>
<path d="M5994 5795 c-10 -8 -37 -15 -59 -16 -36 -1 -37 -2 -14 -9 37 -11 73
-2 87 21 15 23 12 24 -14 4z"/>
<path d="M5600 5630 c-13 -8 -12 -10 3 -10 9 0 17 5 17 10 0 12 -1 12 -20 0z"/>
<path d="M5270 5475 c0 -9 82 -46 92 -43 6 2 -12 14 -40 25 -29 12 -52 20 -52
18z"/>
<path d="M5518 5393 c6 -2 18 -2 25 0 6 3 1 5 -13 5 -14 0 -19 -2 -12 -5z"/>
<path d="M4990 5310 c0 -19 102 -214 119 -227 9 -8 30 -23 46 -35 24 -17 22
-13 -12 23 -22 24 -64 90 -92 147 -48 96 -61 116 -61 92z"/>
<path d="M3968 6753 c7 -3 16 -2 19 1 4 3 -2 6 -13 5 -11 0 -14 -3 -6 -6z"/>
<path d="M3865 6720 c-33 -16 -78 -47 -99 -69 l-39 -40 -30 21 c-16 11 -35 35
-43 52 -7 17 -13 25 -14 18 0 -24 30 -70 60 -92 l31 -22 40 46 c25 28 66 58
111 81 39 19 64 35 57 35 -8 0 -41 -14 -74 -30z"/>
<path d="M7101 6515 c0 -5 6 -21 14 -35 8 -14 14 -37 15 -52 0 -16 4 -28 9
-28 5 0 6 15 2 33 -8 33 -40 100 -40 82z"/>
<path d="M1706 4924 c-33 -34 -46 -81 -46 -174 1 -134 28 -274 104 -515 38
-124 82 -312 92 -396 l6 -56 -88 -7 c-118 -9 -161 -20 -191 -48 -28 -26 -64
-92 -83 -153 -7 -22 -16 -44 -20 -49 -5 -4 -50 27 -102 71 -51 43 -118 97
-149 120 -31 23 -119 102 -195 175 -395 379 -516 482 -558 476 -52 -7 -18
-182 62 -318 41 -70 195 -236 317 -343 44 -38 178 -164 298 -280 177 -170 218
-214 214 -231 -3 -12 -17 -73 -30 -136 l-24 -115 -144 -3 c-174 -4 -367 16
-693 69 -132 21 -289 44 -348 51 -120 13 -135 8 -124 -37 12 -47 85 -104 213
-167 133 -65 154 -70 503 -118 85 -11 193 -30 240 -41 106 -26 251 -49 308
-49 l42 0 0 -67 c0 -159 -92 -247 -462 -447 -49 -26 -88 -49 -88 -52 0 -7 168
79 257 131 43 26 119 78 170 116 81 62 94 76 111 122 11 29 23 84 27 124 7 69
8 72 36 78 61 14 32 20 -94 21 -108 0 -159 6 -282 32 -82 17 -235 43 -340 57
-104 14 -225 35 -268 47 -128 34 -302 131 -351 195 -14 20 -15 27 -5 39 15 19
41 16 354 -32 552 -86 685 -99 889 -83 70 5 136 14 146 19 24 13 60 89 60 126
0 38 8 46 32 33 11 -6 22 -9 24 -6 3 3 -26 26 -63 53 -37 26 -174 155 -303
285 -129 130 -292 286 -361 347 -179 159 -246 243 -300 379 -36 88 -45 175
-19 180 30 7 111 -61 397 -328 158 -149 360 -328 448 -397 88 -69 205 -164
260 -211 55 -46 108 -91 118 -100 16 -13 17 -13 12 1 -5 12 9 18 62 32 81 20
136 54 159 98 17 33 17 33 26 9 4 -13 11 -21 15 -18 3 4 -4 30 -15 59 -29 72
-57 180 -82 318 -27 146 -58 268 -125 501 -67 232 -93 394 -78 482 21 122 55
165 95 120 48 -55 124 -256 209 -553 57 -200 129 -423 135 -417 2 2 -12 50
-31 108 -20 57 -58 185 -85 284 -85 311 -171 536 -224 590 -31 31 -37 31 -70
-1z m159 -1164 c3 -5 1 -10 -5 -10 -46 0 -210 -24 -235 -34 -22 -9 -40 -30
-60 -69 -16 -31 -31 -54 -33 -52 -2 1 11 31 28 65 37 73 57 84 180 98 119 13
118 13 125 2z m-344 -207 c-12 -20 -14 -14 -5 12 4 9 9 14 11 11 3 -2 0 -13
-6 -23z"/>
<path d="M10140 3490 c-8 -5 -10 -10 -5 -10 6 0 17 5 25 10 8 5 11 10 5 10 -5
0 -17 -5 -25 -10z"/>
<path d="M10065 3469 c-16 -5 -79 -18 -138 -29 -60 -11 -112 -22 -117 -25 -5
-3 -28 -1 -50 5 -39 10 -45 9 -91 -20 -27 -18 -49 -34 -49 -37 0 -3 12 3 28
12 15 10 36 24 47 31 23 14 88 7 82 -9 -5 -17 -185 -143 -254 -179 -34 -18
-60 -34 -58 -36 9 -10 130 60 241 139 l124 90 108 19 c59 11 125 26 147 34 44
16 28 20 -20 5z"/>
<path d="M9584 3344 c-18 -14 -18 -15 4 -4 12 6 22 13 22 15 0 8 -5 6 -26 -11z"/>
<path d="M2327 3140 c-41 -54 -64 -68 -211 -126 -76 -29 -109 -49 -143 -83
-57 -57 -48 -65 15 -12 30 26 93 60 163 90 146 62 154 66 191 124 41 64 31 69
-15 7z"/>
<path d="M2357 3049 c-64 -15 -96 -37 -133 -93 -40 -60 -94 -187 -94 -220 0
-11 15 15 33 59 43 105 99 190 139 215 37 22 100 34 172 34 33 0 43 2 30 7
-25 10 -100 9 -147 -2z"/>
<path d="M1806 2792 c-19 -38 -53 -113 -76 -168 -22 -54 -51 -110 -63 -123
-21 -23 -21 -23 -1 -13 31 16 37 26 99 172 31 74 64 150 71 168 25 57 5 34
-30 -36z"/>
<path d="M7510 1340 c-215 -29 -306 -44 -288 -48 10 -2 66 4 124 12 59 9 109
15 111 12 6 -6 -18 -97 -34 -129 -8 -16 -12 -31 -10 -34 7 -7 27 32 41 80 14
50 36 61 36 19 0 -17 -6 -33 -12 -36 -7 -4 9 -4 36 -1 63 6 99 29 91 56 -5 15
-2 19 14 19 18 0 21 -7 23 -42 l1 -43 4 38 c3 25 9 37 20 37 12 0 13 -3 3 -15
-10 -12 -7 -15 12 -20 14 -4 44 -5 69 -2 l44 4 -47 1 c-40 2 -48 5 -48 21 0
28 -21 32 -131 24 -65 -4 -99 -3 -99 4 0 21 27 31 98 38 40 4 75 12 78 16 3 5
4 8 2 8 -2 -1 -64 -9 -138 -19z m76 -72 c10 -15 -24 -38 -58 -38 -23 0 -28 4
-28 25 0 22 4 25 39 25 22 0 43 -5 47 -12z"/>
</g>
</svg>
